<?xml version="1.0" encoding="UTF-8" standalone="no"?>
<!DOCTYPE svg PUBLIC "-//W3C//DTD SVG 1.1//EN" "http://www.w3.org/Graphics/SVG/1.1/DTD/svg11.dtd">
<svg width="100%" height="100%" viewBox="0 0 1400 300" version="1.1" xmlns="http://www.w3.org/2000/svg" xmlns:xlink="http://www.w3.org/1999/xlink" xml:space="preserve" xmlns:serif="http://www.serif.com/" style="fill-rule:evenodd;clip-rule:evenodd;stroke-linejoin:round;stroke-miterlimit:2;">
    <g id="logo_on_white" transform="matrix(0.917506,0,0,0.917506,-123.029,-456.083)">
        <g transform="matrix(0.857124,0,0,0.841208,302.943,660.577)">
            <g transform="matrix(1,0,0,1,-242.5,-182.5)">
                <path d="M349.752,173.716C356.419,177.565 356.419,187.187 349.752,191.036L106.188,331.658C99.521,335.507 91.188,330.696 91.188,322.998L91.188,41.754C91.188,34.056 99.521,29.245 106.188,33.094L349.752,173.716Z" style="fill:url(#_Linear1);fill-rule:nonzero;"/>
                <path d="M135.248,191.036C128.581,187.187 128.581,177.565 135.248,173.716L378.812,33.094C385.479,29.245 393.812,34.056 393.812,41.754L393.812,322.998C393.812,330.696 385.479,335.507 378.812,331.658L135.248,191.036Z" style="fill:url(#_Radial2);fill-rule:nonzero;"/>
                <path d="M349.752,173.716C356.419,177.565 356.419,187.187 349.752,191.036L242.499,252.958L135.248,191.036C128.581,187.187 128.581,177.565 135.248,173.716L242.5,111.794L349.752,173.716Z" style="fill:rgb(189,56,180);fill-rule:nonzero;"/>
            </g>
        </g>
        <g transform="matrix(0.558363,0,0,0.558363,275.955,577.773)">
            <g transform="matrix(476.182,0,0,476.182,421.5,274.117)">
                <path d="M0.954,-0L0.804,-0L0.804,-0.262C0.804,-0.303 0.796,-0.333 0.779,-0.35C0.762,-0.368 0.732,-0.376 0.689,-0.376C0.643,-0.376 0.613,-0.367 0.596,-0.347C0.58,-0.328 0.572,-0.297 0.572,-0.253L0.553,-0.253L0.541,-0.347L0.57,-0.347C0.574,-0.376 0.583,-0.402 0.597,-0.427C0.61,-0.451 0.631,-0.471 0.658,-0.487C0.685,-0.503 0.719,-0.511 0.762,-0.511C0.805,-0.511 0.841,-0.502 0.869,-0.485C0.898,-0.467 0.919,-0.444 0.933,-0.414C0.947,-0.384 0.954,-0.35 0.954,-0.312L0.954,-0ZM0.19,-0L0.04,-0L0.04,-0.501L0.179,-0.501L0.179,-0.345L0.19,-0.34L0.19,-0ZM0.572,-0L0.422,-0L0.422,-0.262C0.422,-0.303 0.413,-0.333 0.397,-0.35C0.38,-0.368 0.35,-0.376 0.307,-0.376C0.261,-0.376 0.23,-0.367 0.214,-0.347C0.198,-0.328 0.19,-0.297 0.19,-0.253L0.171,-0.253L0.16,-0.349L0.187,-0.349C0.192,-0.377 0.201,-0.403 0.214,-0.428C0.227,-0.452 0.247,-0.472 0.273,-0.488C0.299,-0.503 0.333,-0.511 0.375,-0.511C0.418,-0.511 0.454,-0.502 0.482,-0.484C0.509,-0.466 0.53,-0.442 0.543,-0.412C0.557,-0.382 0.563,-0.348 0.563,-0.312L0.572,-0.312L0.572,-0Z" style="fill:rgb(13,13,13);fill-rule:nonzero;"/>
            </g>
            <g transform="matrix(476.182,0,0,476.182,892.806,274.117)">
                <path d="M0.307,0.01C0.25,0.01 0.2,-0.001 0.157,-0.022C0.114,-0.043 0.081,-0.074 0.057,-0.113C0.033,-0.152 0.021,-0.198 0.021,-0.25C0.021,-0.304 0.033,-0.35 0.057,-0.388C0.081,-0.427 0.114,-0.457 0.157,-0.479C0.2,-0.5 0.25,-0.511 0.307,-0.511C0.364,-0.511 0.414,-0.5 0.457,-0.479C0.499,-0.457 0.533,-0.427 0.557,-0.388C0.581,-0.35 0.593,-0.304 0.593,-0.25C0.593,-0.198 0.581,-0.152 0.557,-0.113C0.533,-0.074 0.499,-0.043 0.457,-0.022C0.414,-0.001 0.364,0.01 0.307,0.01ZM0.307,-0.123C0.358,-0.123 0.393,-0.133 0.414,-0.153C0.434,-0.174 0.444,-0.206 0.444,-0.25C0.444,-0.295 0.434,-0.327 0.414,-0.348C0.393,-0.368 0.358,-0.379 0.307,-0.379C0.256,-0.379 0.22,-0.368 0.2,-0.348C0.18,-0.327 0.17,-0.295 0.17,-0.25C0.17,-0.206 0.18,-0.174 0.2,-0.153C0.22,-0.133 0.256,-0.123 0.307,-0.123Z" style="fill:rgb(13,13,13);fill-rule:nonzero;"/>
            </g>
            <g transform="matrix(476.182,0,0,476.182,1185.03,274.117)">
                <path d="M0.293,0.01C0.209,0.01 0.144,-0.006 0.099,-0.038C0.053,-0.069 0.031,-0.114 0.031,-0.172L0.031,-0.175L0.181,-0.175L0.181,-0.166C0.181,-0.144 0.189,-0.128 0.206,-0.121C0.222,-0.113 0.252,-0.109 0.294,-0.109C0.334,-0.109 0.361,-0.113 0.374,-0.12C0.387,-0.126 0.393,-0.137 0.393,-0.152C0.393,-0.166 0.388,-0.176 0.378,-0.182C0.368,-0.187 0.348,-0.192 0.319,-0.196L0.178,-0.213C0.128,-0.218 0.09,-0.232 0.063,-0.255C0.036,-0.278 0.022,-0.31 0.022,-0.353C0.022,-0.382 0.031,-0.409 0.048,-0.433C0.065,-0.456 0.092,-0.475 0.129,-0.489C0.165,-0.504 0.212,-0.511 0.269,-0.511C0.324,-0.511 0.37,-0.504 0.409,-0.49C0.447,-0.476 0.476,-0.456 0.496,-0.429C0.516,-0.402 0.526,-0.368 0.526,-0.327L0.526,-0.324L0.376,-0.324L0.376,-0.33C0.376,-0.344 0.373,-0.355 0.367,-0.365C0.362,-0.374 0.351,-0.381 0.335,-0.385C0.318,-0.39 0.295,-0.392 0.264,-0.392C0.227,-0.392 0.201,-0.389 0.189,-0.381C0.176,-0.374 0.17,-0.363 0.17,-0.347C0.17,-0.334 0.175,-0.325 0.185,-0.318C0.196,-0.312 0.217,-0.307 0.25,-0.302L0.357,-0.289C0.424,-0.282 0.471,-0.266 0.499,-0.243C0.527,-0.22 0.541,-0.187 0.541,-0.146C0.541,-0.114 0.531,-0.087 0.511,-0.064C0.491,-0.041 0.463,-0.022 0.426,-0.009C0.389,0.004 0.345,0.01 0.293,0.01Z" style="fill:rgb(13,13,13);fill-rule:nonzero;"/>
            </g>
            <g transform="matrix(476.182,0,0,476.182,1452.59,274.117)">
                <path d="M0.546,-0L0.406,-0L0.406,-0.119L0.398,-0.121L0.398,-0.296C0.398,-0.328 0.39,-0.351 0.373,-0.362C0.357,-0.374 0.329,-0.379 0.289,-0.379C0.251,-0.379 0.224,-0.374 0.207,-0.362C0.19,-0.351 0.182,-0.331 0.182,-0.302L0.182,-0.298L0.031,-0.298L0.031,-0.301C0.031,-0.342 0.042,-0.379 0.064,-0.41C0.086,-0.442 0.117,-0.466 0.157,-0.484C0.198,-0.502 0.245,-0.511 0.3,-0.511C0.356,-0.511 0.402,-0.502 0.438,-0.484C0.475,-0.466 0.502,-0.44 0.519,-0.408C0.537,-0.376 0.546,-0.338 0.546,-0.294L0.546,-0ZM0.194,0.01C0.14,0.01 0.098,-0.002 0.067,-0.026C0.036,-0.05 0.021,-0.082 0.021,-0.124C0.021,-0.149 0.027,-0.171 0.039,-0.189C0.051,-0.207 0.069,-0.222 0.093,-0.233C0.117,-0.244 0.147,-0.251 0.183,-0.255L0.408,-0.278L0.408,-0.192L0.224,-0.171C0.206,-0.17 0.193,-0.166 0.184,-0.16C0.176,-0.155 0.172,-0.146 0.172,-0.134C0.172,-0.12 0.177,-0.111 0.188,-0.105C0.199,-0.099 0.215,-0.096 0.237,-0.096C0.273,-0.096 0.303,-0.1 0.326,-0.106C0.35,-0.112 0.367,-0.123 0.379,-0.138C0.392,-0.153 0.398,-0.173 0.398,-0.199L0.412,-0.2L0.412,-0.115L0.398,-0.115C0.387,-0.076 0.364,-0.046 0.329,-0.023C0.295,-0.001 0.25,0.01 0.194,0.01Z" style="fill:url(#_Linear3);fill-rule:nonzero;"/>
            </g>
            <g transform="matrix(476.182,0,0,476.182,1729.52,274.117)">
                <path d="M0.19,-0L0.04,-0L0.04,-0.501L0.19,-0.501L0.19,-0ZM0.19,-0.552L0.04,-0.552L0.04,-0.67L0.19,-0.67L0.19,-0.552Z" style="fill:url(#_Linear4);fill-rule:nonzero;"/>
            </g>
            <g transform="matrix(476.182,0,0,476.182,1838.69,274.117)">
                <path d="M0.307,0.01C0.25,0.01 0.201,-0.001 0.158,-0.022C0.116,-0.043 0.083,-0.074 0.06,-0.113C0.036,-0.152 0.025,-0.198 0.025,-0.25C0.025,-0.304 0.036,-0.35 0.06,-0.388C0.083,-0.427 0.116,-0.457 0.158,-0.479C0.201,-0.5 0.25,-0.511 0.307,-0.511C0.361,-0.511 0.408,-0.502 0.449,-0.484C0.49,-0.466 0.521,-0.441 0.544,-0.409C0.567,-0.376 0.578,-0.338 0.578,-0.295L0.578,-0.281L0.429,-0.281L0.429,-0.289C0.429,-0.321 0.418,-0.343 0.396,-0.356C0.374,-0.37 0.343,-0.376 0.304,-0.376C0.26,-0.376 0.227,-0.367 0.206,-0.348C0.185,-0.329 0.174,-0.297 0.174,-0.25C0.174,-0.205 0.185,-0.172 0.206,-0.153C0.227,-0.135 0.26,-0.125 0.304,-0.125C0.343,-0.125 0.374,-0.132 0.396,-0.145C0.418,-0.158 0.429,-0.18 0.429,-0.212L0.429,-0.22L0.578,-0.22L0.578,-0.206C0.578,-0.163 0.567,-0.125 0.544,-0.093C0.521,-0.061 0.49,-0.035 0.449,-0.017C0.408,0.001 0.361,0.01 0.307,0.01Z" style="fill:rgb(13,13,13);fill-rule:nonzero;"/>
            </g>
            <g transform="matrix(476.182,0,0,476.182,2125.72,274.117)">
                <path d="M0.307,0.01C0.25,0.01 0.2,-0.001 0.157,-0.022C0.114,-0.043 0.081,-0.074 0.057,-0.113C0.033,-0.152 0.021,-0.198 0.021,-0.25C0.021,-0.304 0.033,-0.35 0.057,-0.388C0.081,-0.427 0.114,-0.457 0.157,-0.479C0.2,-0.5 0.25,-0.511 0.307,-0.511C0.364,-0.511 0.414,-0.5 0.457,-0.479C0.499,-0.457 0.533,-0.427 0.557,-0.388C0.581,-0.35 0.593,-0.304 0.593,-0.25C0.593,-0.198 0.581,-0.152 0.557,-0.113C0.533,-0.074 0.499,-0.043 0.457,-0.022C0.414,-0.001 0.364,0.01 0.307,0.01ZM0.307,-0.123C0.358,-0.123 0.393,-0.133 0.414,-0.153C0.434,-0.174 0.444,-0.206 0.444,-0.25C0.444,-0.295 0.434,-0.327 0.414,-0.348C0.393,-0.368 0.358,-0.379 0.307,-0.379C0.256,-0.379 0.22,-0.368 0.2,-0.348C0.18,-0.327 0.17,-0.295 0.17,-0.25C0.17,-0.206 0.18,-0.174 0.2,-0.153C0.22,-0.133 0.256,-0.123 0.307,-0.123Z" style="fill:rgb(13,13,13);fill-rule:nonzero;"/>
            </g>
            <g transform="matrix(476.182,0,0,476.182,2417.94,274.117)">
            </g>
        </g>
    </g>
    <defs>
        <linearGradient id="_Linear1" x1="0" y1="0" x2="1" y2="0" gradientUnits="userSpaceOnUse" gradientTransform="matrix(198.409,0,0,198.409,110.227,182.376)"><stop offset="0" style="stop-color:rgb(240,75,35);stop-opacity:1"/><stop offset="1" style="stop-color:rgb(189,56,180);stop-opacity:1"/></linearGradient>
        <radialGradient id="_Radial2" cx="0" cy="0" r="1" gradientUnits="userSpaceOnUse" gradientTransform="matrix(136.5,0,0,136.5,258,182)"><stop offset="0" style="stop-color:rgb(189,56,180);stop-opacity:1"/><stop offset="1" style="stop-color:rgb(26,153,195);stop-opacity:1"/></radialGradient>
        <linearGradient id="_Linear3" x1="0" y1="0" x2="1" y2="0" gradientUnits="userSpaceOnUse" gradientTransform="matrix(0.810841,0,0,1.14,0,-0.32)"><stop offset="0" style="stop-color:rgb(26,153,195);stop-opacity:1"/><stop offset="1" style="stop-color:rgb(189,56,180);stop-opacity:1"/></linearGradient>
        <linearGradient id="_Linear4" x1="0" y1="0" x2="1" y2="0" gradientUnits="userSpaceOnUse" gradientTransform="matrix(0.810841,0,0,1.14,-0.581561,-0.32)"><stop offset="0" style="stop-color:rgb(26,153,195);stop-opacity:1"/><stop offset="1" style="stop-color:rgb(189,56,180);stop-opacity:1"/></linearGradient>
    </defs>
</svg>
