<svg width="1901" height="443" viewBox="0 0 1901 443" fill="none" xmlns="http://www.w3.org/2000/svg">
<g clip-path="url(#clip0_201_5)">
<path d="M317.058 71.7715C321.477 69.2205 327 72.4097 327 77.5117V366.654C327 371.756 321.477 374.946 317.058 372.395L66.6538 227.823L66.6528 227.822L177.499 291.819L288.346 227.822C292.765 225.271 292.765 218.894 288.346 216.343L177.5 152.346L317.058 71.7715ZM65.6987 227.158C65.8152 227.255 65.9359 227.349 66.061 227.439C65.9985 227.394 65.9368 227.349 65.8765 227.302L65.6987 227.158ZM65.2036 226.701C64.9965 226.489 64.8068 226.266 64.6343 226.034C64.8068 226.266 64.9965 226.489 65.2036 226.701Z" fill="black"/>
<path d="M28 77.5119C28 72.4099 33.5229 69.2207 37.9414 71.7717L177.5 152.346L66.6533 216.343C62.2351 218.894 62.2352 225.271 66.6533 227.822L177.499 291.82L288.347 227.822L37.9414 372.394C33.5229 374.945 28.0001 371.756 28 366.654V77.5119ZM289.473 227.01C289.36 227.11 289.244 227.207 289.123 227.301C289.244 227.207 289.36 227.11 289.473 227.01Z" fill="black"/>
<path d="M781.383 318H730.383V228.92C730.383 214.867 727.55 204.893 721.883 199C716.217 193.107 706.017 190.16 691.283 190.16C675.87 190.16 665.33 193.447 659.663 200.02C654.223 206.593 651.503 217.247 651.503 231.98H645.043L640.963 200.02H650.823C652.183 190.273 655.13 181.207 659.663 172.82C664.423 164.433 671.337 157.633 680.403 152.42C689.697 146.98 701.597 144.26 716.103 144.26C730.837 144.26 742.963 147.207 752.483 153.1C762.23 158.993 769.483 167.04 774.243 177.24C779.003 187.44 781.383 199 781.383 211.92V318ZM521.623 318H470.623V147.66H517.883V200.7L521.623 202.4V318ZM651.503 318H600.503V228.92C600.503 214.867 597.67 204.893 592.003 199C586.337 193.107 576.137 190.16 561.403 190.16C545.763 190.16 535.223 193.447 529.783 200.02C524.343 206.593 521.623 217.247 521.623 231.98H515.163L511.423 199.34H520.603C522.19 189.82 525.25 180.98 529.783 172.82C534.317 164.433 541.003 157.633 549.843 152.42C558.683 146.98 570.243 144.26 584.523 144.26C599.257 144.26 611.27 147.32 620.563 153.44C630.083 159.56 637.11 167.72 641.643 177.92C646.177 188.12 648.443 199.453 648.443 211.92H651.503V318ZM898.083 321.4C878.816 321.4 861.816 317.773 847.083 310.52C832.576 303.267 821.243 293.067 813.083 279.92C804.923 266.547 800.843 250.907 800.843 233C800.843 214.867 804.923 199.227 813.083 186.08C821.243 172.707 832.576 162.393 847.083 155.14C861.816 147.887 878.816 144.26 898.083 144.26C917.576 144.26 934.576 147.887 949.083 155.14C963.59 162.393 974.923 172.707 983.083 186.08C991.243 199.227 995.323 214.867 995.323 233C995.323 250.907 991.243 266.547 983.083 279.92C974.923 293.067 963.59 303.267 949.083 310.52C934.576 317.773 917.576 321.4 898.083 321.4ZM898.083 276.18C915.31 276.18 927.323 272.78 934.123 265.98C941.15 258.953 944.663 247.96 944.663 233C944.663 217.813 941.15 206.707 934.123 199.68C927.323 192.653 915.31 189.14 898.083 189.14C880.856 189.14 868.73 192.653 861.703 199.68C854.903 206.707 851.503 217.813 851.503 233C851.503 247.96 854.903 258.953 861.703 265.98C868.73 272.78 880.856 276.18 898.083 276.18ZM1102.17 321.4C1073.61 321.4 1051.62 316.073 1036.21 305.42C1020.8 294.54 1013.09 279.24 1013.09 259.52V258.5H1064.09V261.56C1064.09 269.267 1066.81 274.48 1072.25 277.2C1077.92 279.693 1088 280.94 1102.51 280.94C1116.11 280.94 1125.06 279.807 1129.37 277.54C1133.9 275.047 1136.17 271.307 1136.17 266.32C1136.17 261.56 1134.47 258.273 1131.07 256.46C1127.67 254.42 1120.98 252.72 1111.01 251.36L1063.07 245.58C1046.07 243.767 1032.92 239.007 1023.63 231.3C1014.56 223.593 1010.03 212.487 1010.03 197.98C1010.03 188.007 1012.98 179.053 1018.87 171.12C1024.76 162.96 1033.83 156.5 1046.07 151.74C1058.54 146.753 1074.52 144.26 1094.01 144.26C1112.6 144.26 1128.35 146.64 1141.27 151.4C1154.42 155.933 1164.39 162.847 1171.19 172.14C1177.99 181.433 1181.39 192.993 1181.39 206.82V207.84H1130.39V205.8C1130.39 201.04 1129.37 197.187 1127.33 194.24C1125.52 191.067 1121.78 188.687 1116.11 187.1C1110.67 185.513 1102.74 184.72 1092.31 184.72C1079.62 184.72 1071.12 185.967 1066.81 188.46C1062.5 190.727 1060.35 194.58 1060.35 200.02C1060.35 204.327 1062.05 207.613 1065.45 209.88C1069.08 211.92 1076.44 213.733 1087.55 215.32L1123.93 219.74C1146.6 222.233 1162.69 227.447 1172.21 235.38C1181.73 243.313 1186.49 254.307 1186.49 268.36C1186.49 279.013 1183.09 288.307 1176.29 296.24C1169.49 304.173 1159.86 310.407 1147.39 314.94C1134.92 319.247 1119.85 321.4 1102.17 321.4ZM1379.11 318H1331.51V277.54L1328.79 276.86V217.36C1328.79 206.253 1325.96 198.773 1320.29 194.92C1314.85 191.067 1305.33 189.14 1291.73 189.14C1278.81 189.14 1269.52 191.067 1263.85 194.92C1258.18 198.773 1255.35 205.573 1255.35 215.32V216.68H1204.01V215.66C1204.01 201.607 1207.75 189.253 1215.23 178.6C1222.71 167.72 1233.25 159.333 1246.85 153.44C1260.68 147.32 1276.88 144.26 1295.47 144.26C1314.51 144.26 1330.15 147.32 1342.39 153.44C1354.86 159.56 1364.04 168.173 1369.93 179.28C1376.05 190.16 1379.11 203.08 1379.11 218.04V318ZM1259.43 321.4C1241.07 321.4 1226.68 317.32 1216.25 309.16C1205.82 301 1200.61 289.893 1200.61 275.84C1200.61 267.227 1202.65 259.86 1206.73 253.74C1210.81 247.62 1216.93 242.747 1225.09 239.12C1233.25 235.267 1243.45 232.66 1255.69 231.3L1332.19 223.48V252.72L1269.63 259.86C1263.51 260.313 1258.98 261.56 1256.03 263.6C1253.31 265.413 1251.95 268.36 1251.95 272.44C1251.95 276.973 1253.76 280.26 1257.39 282.3C1261.02 284.34 1266.57 285.36 1274.05 285.36C1286.29 285.36 1296.38 284.227 1304.31 281.96C1312.24 279.693 1318.25 276.067 1322.33 271.08C1326.64 265.867 1328.79 258.953 1328.79 250.34L1333.55 250V278.9H1328.79C1324.94 292.047 1317.12 302.473 1305.33 310.18C1293.77 317.66 1278.47 321.4 1259.43 321.4ZM1455.96 318H1404.96V147.66H1455.96V318ZM1455.96 130.32H1404.96V90.2H1455.96V130.32ZM1573.43 321.4C1554.17 321.4 1537.28 317.773 1522.77 310.52C1508.27 303.267 1497.05 293.067 1489.11 279.92C1481.41 266.547 1477.55 250.907 1477.55 233C1477.55 214.867 1481.41 199.227 1489.11 186.08C1497.05 172.707 1508.27 162.393 1522.77 155.14C1537.28 147.887 1554.17 144.26 1573.43 144.26C1591.79 144.26 1607.89 147.32 1621.71 153.44C1635.54 159.56 1646.31 168.173 1654.01 179.28C1661.72 190.16 1665.57 202.967 1665.57 217.7V222.46H1614.91V219.74C1614.91 208.86 1611.17 201.267 1603.69 196.96C1596.21 192.427 1585.79 190.16 1572.41 190.16C1557.23 190.16 1546.01 193.333 1538.75 199.68C1531.73 206.027 1528.21 217.133 1528.21 233C1528.21 248.413 1531.73 259.407 1538.75 265.98C1546.01 272.327 1557.23 275.5 1572.41 275.5C1585.79 275.5 1596.21 273.347 1603.69 269.04C1611.17 264.507 1614.91 256.8 1614.91 245.92V243.2H1665.57V247.96C1665.57 262.693 1661.72 275.613 1654.01 286.72C1646.31 297.6 1635.54 306.1 1621.71 312.22C1607.89 318.34 1591.79 321.4 1573.43 321.4ZM1778.3 321.4C1759.03 321.4 1742.03 317.773 1727.3 310.52C1712.79 303.267 1701.46 293.067 1693.3 279.92C1685.14 266.547 1681.06 250.907 1681.06 233C1681.06 214.867 1685.14 199.227 1693.3 186.08C1701.46 172.707 1712.79 162.393 1727.3 155.14C1742.03 147.887 1759.03 144.26 1778.3 144.26C1797.79 144.26 1814.79 147.887 1829.3 155.14C1843.8 162.393 1855.14 172.707 1863.3 186.08C1871.46 199.227 1875.54 214.867 1875.54 233C1875.54 250.907 1871.46 266.547 1863.3 279.92C1855.14 293.067 1843.8 303.267 1829.3 310.52C1814.79 317.773 1797.79 321.4 1778.3 321.4ZM1778.3 276.18C1795.52 276.18 1807.54 272.78 1814.34 265.98C1821.36 258.953 1824.88 247.96 1824.88 233C1824.88 217.813 1821.36 206.707 1814.34 199.68C1807.54 192.653 1795.52 189.14 1778.3 189.14C1761.07 189.14 1748.94 192.653 1741.92 199.68C1735.12 206.707 1731.72 217.813 1731.72 233C1731.72 247.96 1735.12 258.953 1741.92 265.98C1748.94 272.78 1761.07 276.18 1778.3 276.18Z" fill="black"/>
</g>
<defs>
<clipPath id="clip0_201_5">
<rect width="1901" height="443" fill="white"/>
</clipPath>
</defs>
</svg>
